HIERARCHY
ROOT root
{
	OFFSET	0	13.1	24.9
	CHANNELS 6  Xposition Yposition Zposition Xrotation Yrotation Zrotation
	JOINT spine_1
	{
		OFFSET	0	9.99999	0
		CHANNELS 3  Xrotation Yrotation Zrotation
		JOINT spine_2
		{
			OFFSET	0	112	-10
			CHANNELS 3  Xrotation Yrotation Zrotation
			JOINT spine_3
			{
				OFFSET	0	206.5	19.3
				CHANNELS 3  Xrotation Yrotation Zrotation
				JOINT spine_4
				{
					OFFSET	0	110.4	14.6
					CHANNELS 3  Xrotation Yrotation Zrotation
					JOINT neck_1
					{
						OFFSET	0	71.8	-50.3
						CHANNELS 3  Xrotation Yrotation Zrotation
						JOINT neck_2
						{
							OFFSET	0	86.2	-25.8
							CHANNELS 3  Xrotation Yrotation Zrotation
							JOINT head_ee
							{
								OFFSET	0	179.8	-8.7
								CHANNELS 3  Xrotation Yrotation Zrotation
								End Site
								{
									OFFSET	1	0	0
								}
							}
						}
					}
					JOINT left_clavicle
					{
						OFFSET	-43.2	22.4	-70.8
						CHANNELS 3  Xrotation Yrotation Zrotation
						JOINT left_shoulder
						{
							OFFSET	-93.9	-5.79999	48.7
							CHANNELS 3  Xrotation Yrotation Zrotation
							JOINT left_elbow
							{
								OFFSET	-291.4	-30.8	15.2
								CHANNELS 3  Xrotation Yrotation Zrotation
								JOINT left_lowarm_twist
								{
									OFFSET	-110.7	-3.89999	13.6
									CHANNELS 3  Xrotation Yrotation Zrotation
									JOINT left_hand
									{
										OFFSET	-110.7	-3.89999	13.6
										CHANNELS 3  Xrotation Yrotation Zrotation
										JOINT left_ee
										{
											OFFSET	-80.8	-5.10001	12.1
											CHANNELS 3  Xrotation Yrotation Zrotation
											End Site
											{
												OFFSET	1	0	0
											}
										}
									}
								}
							}
						}
					}
					JOINT right_clavicle
					{
						OFFSET	43.2	22.4	-70.8
						CHANNELS 3  Xrotation Yrotation Zrotation
						JOINT right_shoulder
						{
							OFFSET	93.9	-5.79999	48.7
							CHANNELS 3  Xrotation Yrotation Zrotation
							JOINT right_elbow
							{
								OFFSET	291.4	-30.8	15.2
								CHANNELS 3  Xrotation Yrotation Zrotation
								JOINT right_lowarm_twist
								{
									OFFSET	110.7	-3.89999	13.6
									CHANNELS 3  Xrotation Yrotation Zrotation
									JOINT right_hand
									{
										OFFSET	110.7	-3.89999	13.6
										CHANNELS 3  Xrotation Yrotation Zrotation
										JOINT right_ee
										{
											OFFSET	80.8	-5.10001	12.1
											CHANNELS 3  Xrotation Yrotation Zrotation
											End Site
											{
												OFFSET	1	0	0
											}
										}
									}
								}
							}
						}
					}
				}
			}
		}
	}
	JOINT left_hip
	{
		OFFSET	-82.8	-127.5	0.300001
		CHANNELS 3  Xrotation Yrotation Zrotation
		JOINT left_knee
		{
			OFFSET	-28.2	-396.7	2.2
			CHANNELS 3  Xrotation Yrotation Zrotation
			JOINT left_ankle
			{
				OFFSET	-11.7	-411.3	35.4
				CHANNELS 3  Xrotation Yrotation Zrotation
				JOINT left_toes
				{
					OFFSET	0	-60	-88.6
					CHANNELS 3  Xrotation Yrotation Zrotation
					JOINT left_foot_ee
					{
						OFFSET	-22.5	-16.5	-42.2
						CHANNELS 3  Xrotation Yrotation Zrotation
						End Site
						{
							OFFSET	1	0	0
						}
					}
				}
			}
		}
	}
	JOINT right_hip
	{
		OFFSET	82.8	-127.5	0.300001
		CHANNELS 3  Xrotation Yrotation Zrotation
		JOINT right_knee
		{
			OFFSET	28.2	-396.7	2.2
			CHANNELS 3  Xrotation Yrotation Zrotation
			JOINT right_ankle
			{
				OFFSET	11.7	-411.3	35.4
				CHANNELS 3  Xrotation Yrotation Zrotation
				JOINT right_toes
				{
					OFFSET	0	-60	-88.6
					CHANNELS 3  Xrotation Yrotation Zrotation
					JOINT right_foot_ee
					{
						OFFSET	22.5	-16.5	-42.2
						CHANNELS 3  Xrotation Yrotation Zrotation
						End Site
						{
							OFFSET	1	0	0
						}
					}
				}
			}
		}
	}
}
MOTION
Frames: 16
Frame Time: 0.02
3434.67366016 694.043 -1489.79206922 128.141223349 81.0096011513 -130.474003883 -1.45713 -0.117101 0.106465 -1.45713 -0.123638 0.0987982 -1.45736 -0.143392 0.0669802 -1.45734 -0.131014 0.0887856 -20.9297 12.7665 14.8572 -20.7359 17.3943 19.1962 -0.0 0.0 -0.0 2.1592 21.9045 5.60005 -21.3855 -20.4449 64.5897 1.77827 -41.3731 0.671523 -16.5681 -0.868648 1.92485 0.639077 21.8876 12.5857 -0.0 0.0 -0.0 12.744 26.2119 -25.0618 -5.5423 20.652 -52.9951 0.668849 18.3316 -0.107921 62.7686 2.02652 7.35732 6.70011 -3.27197 -53.5082 0.0 0.0 0.0 5.86926 -4.43664 -1.86303 -39.0588 -0.407975 5.86608 42.3359 15.5794 -5.14615 -30.8782 0.0 0.0 -0.0 0.0 -0.0 -1.97304 14.2935 -2.71317 -36.1294 0.239057 -5.44882 42.0128 -11.613 5.06392 9.89432 -0.0 -0.0 0.0 0.0 0.0 
3435.41478954 694.043 -1495.54962764 114.358700974 82.2463537094 -116.545280453 -1.45713 -0.117101 0.106465 -1.45713 -0.123638 0.0987982 -1.45736 -0.143392 0.0669802 -1.45734 -0.131014 0.0887856 -20.9297 12.7665 14.8572 -20.7359 17.3943 19.1962 -0.0 0.0 -0.0 2.1592 21.9045 5.60005 -21.3855 -20.4449 64.5897 1.77827 -41.3731 0.671523 -16.5681 -0.868648 1.92485 0.639077 21.8876 12.5857 -0.0 0.0 -0.0 12.744 26.2119 -25.0618 -5.5423 20.652 -52.9951 0.668849 18.3316 -0.107921 62.7686 2.02652 7.35732 6.70011 -3.27197 -53.5082 0.0 0.0 0.0 5.86926 -4.43664 -1.86303 -39.0588 -0.407975 5.86608 42.3359 15.5794 -5.14615 -30.8782 0.0 0.0 -0.0 0.0 -0.0 -1.97304 14.2935 -2.71317 -36.1294 0.239057 -5.44882 42.0128 -11.613 5.06392 9.89432 -0.0 -0.0 0.0 0.0 0.0 
3421.42607204 692.932 -1491.57071245 131.623007488 79.7563285978 -134.539111039 -1.81517 0.0406687 0.550144 -1.815 0.00557969 0.551617 -1.81479 -0.127546 0.536698 -1.81519 -0.0411851 0.550105 -20.9544 13.1638 14.8555 -20.8036 18.173 19.3776 -0.0 0.0 -0.0 2.55729 20.2914 6.10334 -23.7679 -22.0861 63.6715 1.20271 -30.7848 0.331121 -15.578 -0.80135 1.81745 0.989467 25.1417 15.7214 -0.0 0.0 -0.0 12.9674 25.6209 -25.6457 -2.05796 21.8146 -52.5946 0.937574 24.912 -0.207104 62.6826 2.01848 7.34975 6.93242 -3.31473 -56.2805 0.0 0.0 0.0 10.0605 -1.69826 -2.98454 -42.0603 -0.603017 6.28426 39.5583 11.2699 -4.84796 -30.8324 0.0 0.0 -0.0 0.0 -0.0 -3.00387 15.4793 -3.35713 -37.5324 0.317287 -5.64971 39.3895 -13.4238 4.85604 10.6212 -0.0 -0.0 0.0 0.0 0.0 
3421.45444079 692.932 -1491.8264699 131.224290477 79.8197052269 -134.133976218 -1.81517 0.0406687 0.550144 -1.815 0.00557969 0.551617 -1.81479 -0.127546 0.536698 -1.81519 -0.0411851 0.550105 -20.9544 13.1638 14.8555 -20.8036 18.173 19.3776 -0.0 0.0 -0.0 2.55729 20.2914 6.10334 -23.7679 -22.0861 63.6715 1.20271 -30.7848 0.331121 -15.578 -0.80135 1.81745 0.989467 25.1417 15.7214 -0.0 0.0 -0.0 12.9674 25.6209 -25.6457 -2.05796 21.8146 -52.5946 0.937574 24.912 -0.207104 62.6826 2.01848 7.34975 6.93242 -3.31473 -56.2805 0.0 0.0 0.0 10.0605 -1.69826 -2.98454 -42.0603 -0.603017 6.28426 39.5583 11.2699 -4.84796 -30.8324 0.0 0.0 -0.0 0.0 -0.0 -3.00387 15.4793 -3.35713 -37.5324 0.317287 -5.64971 39.3895 -13.4238 4.85604 10.6212 -0.0 -0.0 0.0 0.0 0.0 
3417.07846435 690.502 -1488.06777003 138.581572122 78.0795034412 -141.914856376 -1.92555 0.126968 0.717582 -1.92526 0.0810508 0.724206 -1.92393 -0.0972748 0.722206 -1.92466 0.0180019 0.728505 -21.4248 13.0667 15.0364 -21.2679 18.028 19.6013 -0.0 0.0 -0.0 2.88744 20.6477 6.5993 -24.9072 -22.8693 63.0727 1.03927 -27.2398 0.251814 -15.2029 -0.776335 1.77646 1.06537 25.8387 16.3782 -0.0 0.0 -0.0 13.1661 26.0969 -26.0499 -0.236187 22.4104 -52.5927 1.02393 26.8947 -0.244835 62.7154 2.02154 7.35263 6.98041 -3.12858 -56.7657 0.0 0.0 0.0 12.2785 -0.210714 -3.70758 -42.5043 -0.633731 6.34526 39.8366 8.66022 -4.85354 -30.4607 0.0 0.0 -0.0 0.0 -0.0 -3.26096 14.5859 -3.08318 -38.6698 0.384319 -5.81118 37.8339 -15.0937 4.7347 10.6251 -0.0 -0.0 0.0 0.0 0.0 
3410.57993419 691.989 -1484.87708816 142.21846289 76.7140689934 -145.781615261 -2.103 0.213313 0.831698 -2.10263 0.159959 0.843585 -2.09981 -0.0523498 0.857018 -2.10082 0.0836522 0.854531 -21.4726 13.0947 15.0463 -21.3203 18.0907 19.6338 -0.0 0.0 -0.0 3.03385 20.5198 6.80984 -26.1594 -23.3943 62.8183 0.897518 -23.9698 0.19053 -14.9073 -0.756816 1.74405 1.15755 26.5342 17.1225 -0.0 0.0 -0.0 13.3355 26.2597 -26.4226 1.60608 23.0574 -52.3144 1.14948 29.657 -0.304326 62.7528 2.02504 7.35592 7.03638 -2.98425 -57.3821 0.0 0.0 0.0 15.1344 1.31122 -4.67646 -42.5324 -0.635688 6.34911 39.0847 6.99705 -4.78035 -30.4213 0.0 0.0 -0.0 0.0 -0.0 -4.08804 14.7095 -3.21684 -38.4314 0.370002 -5.77744 36.9398 -15.5346 4.65584 10.625 -0.0 -0.0 0.0 0.0 0.0 
3404.29009644 691.317 -1483.46565933 144.601842069 75.7709840415 -148.308862936 -2.22157 0.245696 0.929547 -2.22111 0.186051 0.943296 -2.21744 -0.0535429 0.959975 -2.21871 0.0987322 0.956385 -21.773 12.9779 15.0853 -21.6195 17.9287 19.6834 -0.0 0.0 -0.0 2.9732 20.5843 6.7228 -27.3149 -23.6438 62.6054 0.780308 -21.1335 0.145564 -14.6686 -0.741179 1.7178 1.2297 27.1804 17.7278 -0.0 0.0 -0.0 13.3329 26.4352 -26.3952 3.26948 23.7415 -52.1934 1.26091 31.9883 -0.361435 62.769 2.02656 7.35735 7.0808 -2.88052 -57.8851 0.0 0.0 0.0 17.4523 2.42225 -5.24312 -41.7239 -0.580066 6.2379 38.7141 5.73141 -4.74501 -30.3952 0.0 0.0 -0.0 0.0 -0.0 -4.6093 14.8154 -3.45111 -38.3942 0.367783 -5.77217 36.1832 -15.7782 4.58588 10.5409 -0.0 -0.0 0.0 0.0 0.0 
3397.59282781 692.999 -1481.02421177 145.124440979 76.2690067063 -148.384105443 -2.34655 0.381855 0.983364 -2.34607 0.31851 1.00567 -2.3397 0.0570988 1.05335 -2.34118 0.22273 1.03112 -21.9629 12.9167 15.1209 -21.8087 17.8455 19.7303 -0.0 0.0 -0.0 2.95513 20.6134 6.69721 -28.0577 -23.9243 63.1227 0.709989 -19.3772 0.121217 -14.4542 -0.727226 1.69417 1.28887 27.5664 18.1798 -0.0 0.0 -0.0 13.4652 26.708 -26.6682 4.91557 24.5774 -51.9308 1.38058 34.3663 -0.426936 62.7864 2.02818 7.35888 7.10991 -2.80326 -58.2128 0.0 0.0 0.0 19.9384 3.20675 -5.70002 -40.0656 -0.470943 6.00746 38.1672 4.98483 -4.6956 -30.5409 0.0 0.0 -0.0 0.0 -0.0 -5.02221 14.8328 -3.68151 -37.1345 0.294604 -5.59294 35.6054 -15.8572 4.5301 10.4857 -0.0 -0.0 0.0 0.0 0.0 
3390.72180242 694.028 -1481.15934903 145.545397518 76.1564015083 -148.788577055 -2.46867 0.449206 1.02744 -2.46817 0.382921 1.05394 -2.46023 0.105067 1.1164 -2.46186 0.280053 1.08581 -22.2277 12.8173 15.1601 -22.072 17.707 19.7795 -0.0 0.0 -0.0 2.94399 20.761 6.68515 -28.7706 -23.9755 62.8361 0.654 -17.951 0.103298 -14.3594 -0.721082 1.68371 1.31905 27.912 18.4495 -0.0 0.0 -0.0 13.607 26.8815 -26.9755 6.90151 25.3595 -52.1439 1.44062 35.5111 -0.461321 62.8218 2.03148 7.36198 7.13315 -2.72945 -58.4689 0.0 0.0 0.0 21.96 3.75199 -6.06991 -39.9955 -0.466482 5.99766 37.9908 4.44528 -4.68 -30.4989 0.0 0.0 -0.0 0.0 -0.0 -5.22759 14.775 -3.9991 -37.3644 0.307662 -5.62576 35.2062 -15.9157 4.4912 10.4416 -0.0 -0.0 0.0 0.0 0.0 
3387.68978066 694.153 -1479.83863925 151.2623864 75.8362187028 -154.338509518 -2.52579 0.0181977 1.09843 -2.52512 -0.0517307 1.09736 -2.52545 -0.327775 1.04855 -2.52695 -0.158073 1.08715 -20.6863 13.5111 13.6386 -20.6969 19.3691 18.3878 -0.0 0.0 -0.0 3.10912 20.4953 6.91953 -28.9585 -23.6886 63.9614 0.581082 -16.0587 0.0819696 -13.2985 -0.653544 1.56592 1.67348 29.5613 20.928 -0.0 0.0 -0.0 13.5626 26.4502 -26.9267 8.64635 26.0635 -52.2108 1.72344 40.4852 -0.635599 62.9163 2.04033 7.37028 7.22365 -2.28468 -59.3795 0.0 0.0 0.0 23.9101 4.56809 -6.66354 -35.4476 -0.202832 5.35054 33.7481 4.55727 -4.27614 -32.1098 0.0 0.0 -0.0 0.0 -0.0 -5.43518 15.8822 -4.2725 -34.4037 0.149636 -5.19924 35.1581 -15.3034 4.47797 10.1353 -0.0 -0.0 0.0 0.0 0.0 
3381.34319932 693.356 -1475.91799914 153.115734456 76.6509286451 -155.893350832 -2.41235 0.340228 1.02851 -2.4118 0.274095 1.04807 -2.40596 0.00223494 1.08331 -2.40756 0.173286 1.06937 -22.379 12.5971 14.0381 -22.3346 17.8361 18.7087 -0.0 0.0 -0.0 3.12796 19.8823 6.93208 -29.2666 -23.6048 64.1871 0.526741 -14.6244 0.0675914 -13.659 -0.676248 1.60608 1.67495 29.4541 20.9111 -0.0 0.0 -0.0 13.6219 26.3159 -27.0813 10.6415 26.8543 -52.2793 1.77816 41.3714 -0.671451 63.0716 2.05489 7.38387 7.14989 -2.36584 -58.4575 0.0 0.0 0.0 26.5109 5.41642 -8.54128 -32.1 -0.0420837 4.86218 30.775 5.52365 -3.97052 -33.0108 0.0 0.0 -0.0 0.0 -0.0 -4.79484 14.578 -3.74961 -35.2724 0.193712 -5.32522 34.5497 -13.6391 4.39713 9.76009 -0.0 -0.0 0.0 0.0 0.0 
3381.3396438 693.356 -1474.9258376 153.665842313 76.3876881898 -156.459042632 -2.41235 0.340228 1.02851 -2.4118 0.274095 1.04807 -2.40596 0.00223494 1.08331 -2.40756 0.173286 1.06937 -22.379 12.5971 14.0381 -22.3346 17.8361 18.7087 -0.0 0.0 -0.0 3.12796 19.8823 6.93208 -29.2666 -23.6048 64.1871 0.526741 -14.6244 0.0675914 -13.659 -0.676248 1.60608 1.67495 29.4541 20.9111 -0.0 0.0 -0.0 13.6219 26.3159 -27.0813 10.6415 26.8543 -52.2793 1.77816 41.3714 -0.671451 63.0716 2.05489 7.38387 7.14989 -2.36584 -58.4575 0.0 0.0 0.0 26.5109 5.41642 -8.54128 -32.1 -0.0420837 4.86218 30.775 5.52365 -3.97052 -33.0108 0.0 0.0 -0.0 0.0 -0.0 -4.79484 14.578 -3.74961 -35.2724 0.193712 -5.32522 34.5497 -13.6391 4.39713 9.76009 -0.0 -0.0 0.0 0.0 0.0 
3381.88710816 690.607 -1472.8399343 158.804448432 76.4131814516 -161.370920657 -2.31565 0.10926 1.07304 -2.31501 0.0407623 1.07782 -2.31356 -0.229435 1.05391 -2.3151 -0.0601208 1.07691 -20.9604 13.1902 11.7831 -21.1483 19.7167 16.6486 -0.0 0.0 -0.0 3.45566 20.327 7.4257 -29.4035 -24.3334 64.3307 0.405238 -11.3511 0.0402735 -11.0292 -0.516494 1.30996 2.19793 29.5648 24.0197 -0.0 0.0 -0.0 13.1362 25.8198 -26.0132 11.9699 27.7166 -52.8731 2.15605 46.8786 -0.934853 63.2285 2.06964 7.39756 7.07037 -2.4479 -57.487 0.0 0.0 0.0 28.5001 6.34502 -7.92228 -26.8455 0.151908 4.07939 24.1681 6.81955 -3.23373 -34.6979 0.0 0.0 -0.0 0.0 -0.0 -4.35289 17.4375 -4.58421 -34.2549 0.142281 -5.1776 36.7033 -13.5831 4.60774 8.56018 -0.0 -0.0 0.0 0.0 0.0 
3318.9474958 700.447 -1441.61695153 -176.809918957 77.9455869027 177.792163897 -1.73645 0.0479883 0.886415 -1.73602 -0.00851152 0.887672 -1.73577 -0.22105 0.859753 -1.7368 -0.0824991 0.883871 -11.9731 15.1386 5.05758 -12.2725 25.506 9.21635 -0.0 0.0 -0.0 2.79462 19.4752 6.4238 -31.4681 -24.7843 66.1165 0.52618 -14.6095 0.06745 -6.87509 -0.29236 0.828313 4.18597 30.8875 36.9555 -0.0 0.0 -0.0 12.3958 23.3011 -24.5702 10.6516 28.0509 -52.8612 3.25102 58.1491 -1.80794 57.4044 1.54837 6.86338 7.4328 0.904146 -59.939 0.0 0.0 0.0 33.6682 10.0322 -8.49333 -5.29414 0.181487 0.791937 -4.62748 15.8413 0.689456 -37.7491 0.0 0.0 -0.0 0.0 -0.0 -3.72959 20.3167 -6.3204 -26.4836 -0.16261 -4.02488 30.2921 -1.1222 3.93399 1.68692 -0.0 -0.0 0.0 0.0 0.0 
3272.26492704 691.576 -1421.16660875 -169.022229746 79.3208049105 170.815515126 -1.50309 0.321064 0.809477 -1.50277 0.268906 0.828265 -1.49845 0.0661502 0.868304 -1.49944 0.202448 0.846963 -11.879 15.2253 4.83419 -12.1874 25.7978 9.0114 -0.0 0.0 -0.0 2.69727 19.347 6.2737 -31.4196 -25.1754 65.034 0.634627 -17.452 0.0974072 -6.50403 -0.274055 0.784535 4.20362 30.0951 37.0351 -0.0 0.0 -0.0 12.5816 23.0318 -25.0241 9.94371 28.2565 -53.4908 3.17527 57.5411 -1.74381 55.5909 1.39749 6.68664 7.45543 1.17593 -60.038 0.0 0.0 0.0 35.2516 9.7209 -9.18466 -6.75078 0.218508 1.01241 -8.10175 17.0682 1.21765 -38.075 0.0 0.0 -0.0 0.0 -0.0 -6.0055 21.2628 -5.83329 -26.3596 -0.1662 -4.00619 31.5053 -0.125438 4.06787 1.48032 -0.0 -0.0 0.0 0.0 0.0 
3259.26771414 687.082 -1412.92969272 -169.107677748 79.0581877412 171.126420104 -1.47885 0.359724 0.7374 -1.4786 0.312073 0.758794 -1.47409 0.124822 0.810909 -1.47492 0.251319 0.781022 -11.0378 15.0369 4.19085 -11.2985 25.7128 8.14734 -0.0 0.0 -0.0 2.9567 18.7125 6.64169 -31.8586 -25.6173 63.8873 0.646231 -17.7512 0.100916 -6.52343 -0.275005 0.786827 3.92527 29.2653 35.0228 -0.0 0.0 -0.0 12.6874 23.105 -25.2615 9.89644 28.3266 -53.7341 2.92029 55.3344 -1.5313 54.122 1.27945 6.54007 7.42181 0.944732 -59.7604 0.0 0.0 0.0 36.1426 9.82626 -9.25806 -10.1631 0.283199 1.53197 -5.47449 15.9126 0.817021 -36.2355 0.0 0.0 -0.0 0.0 -0.0 -5.78592 22.0627 -6.58639 -28.4672 -0.0997162 -4.3228 32.098 -0.801023 4.12443 0.598243 -0.0 -0.0 0.0 0.0 0.0 
